<?xml version="1.0" encoding="UTF-8" standalone="no"?><svg xmlns="http://www.w3.org/2000/svg" xmlns:xlink="http://www.w3.org/1999/xlink" contentScriptType="application/ecmascript" contentStyleType="text/css" height="559px" preserveAspectRatio="none" style="width:201px;height:559px;" version="1.1" viewBox="0 0 201 559" width="201px" zoomAndPan="magnify"><defs><filter height="300%" id="f1h0kfibih4att" width="300%" x="-1" y="-1"><feGaussianBlur result="blurOut" stdDeviation="2.0"/><feColorMatrix in="blurOut" result="blurOut2" type="matrix" values="0 0 0 0 0 0 0 0 0 0 0 0 0 0 0 0 0 0 .4 0"/><feOffset dx="4.0" dy="4.0" in="blurOut2" result="blurOut3"/><feBlend in="SourceGraphic" in2="blurOut3" mode="normal"/></filter></defs><g><ellipse cx="97.5" cy="20" fill="#000000" filter="url(#f1h0kfibih4att)" rx="10" ry="10" style="stroke:none;stroke-width:1.0;"/><rect fill="#FEFECE" filter="url(#f1h0kfibih4att)" height="33.9688" rx="12.5" ry="12.5" style="stroke:#A80036;stroke-width:1.5;" width="114" x="40.5" y="50"/><text fill="#000000" font-family="sans-serif" font-size="12" lengthAdjust="spacingAndGlyphs" textLength="94" x="50.5" y="71.1387">checkout-head</text><rect fill="#FEFECE" filter="url(#f1h0kfibih4att)" height="33.9688" rx="12.5" ry="12.5" style="stroke:#A80036;stroke-width:1.5;" width="109" x="43" y="103.9688"/><text fill="#000000" font-family="sans-serif" font-size="12" lengthAdjust="spacingAndGlyphs" textLength="89" x="53" y="125.1074">prepare-gihub</text><rect fill="#FEFECE" filter="url(#f1h0kfibih4att)" height="33.9688" rx="12.5" ry="12.5" style="stroke:#A80036;stroke-width:1.5;" width="173" x="11" y="157.9375"/><text fill="#000000" font-family="sans-serif" font-size="12" lengthAdjust="spacingAndGlyphs" textLength="153" x="21" y="179.0762">install-requirement-tools</text><rect fill="#FEFECE" filter="url(#f1h0kfibih4att)" height="33.9688" rx="12.5" ry="12.5" style="stroke:#A80036;stroke-width:1.5;" width="161" x="17" y="211.9063"/><text fill="#000000" font-family="sans-serif" font-size="12" lengthAdjust="spacingAndGlyphs" textLength="141" x="27" y="233.0449">create-plantuml-image</text><rect fill="#FEFECE" filter="url(#f1h0kfibih4att)" height="33.9688" rx="12.5" ry="12.5" style="stroke:#A80036;stroke-width:1.5;" width="160" x="17.5" y="265.875"/><text fill="#000000" font-family="sans-serif" font-size="12" lengthAdjust="spacingAndGlyphs" textLength="140" x="27.5" y="287.0137">delete-plantuml-image</text><rect fill="#FEFECE" filter="url(#f1h0kfibih4att)" height="33.9688" rx="12.5" ry="12.5" style="stroke:#A80036;stroke-width:1.5;" width="80" x="57.5" y="319.8438"/><text fill="#000000" font-family="sans-serif" font-size="12" lengthAdjust="spacingAndGlyphs" textLength="60" x="67.5" y="340.9824">check-diff</text><rect fill="#FEFECE" filter="url(#f1h0kfibih4att)" height="33.9688" rx="12.5" ry="12.5" style="stroke:#A80036;stroke-width:1.5;" width="88" x="53.5" y="422.2148"/><text fill="#000000" font-family="sans-serif" font-size="12" lengthAdjust="spacingAndGlyphs" textLength="68" x="63.5" y="443.3535">push-to-git</text><polygon fill="#FEFECE" filter="url(#f1h0kfibih4att)" points="74.5,373.8125,120.5,373.8125,132.5,385.8125,120.5,397.8125,74.5,397.8125,62.5,385.8125,74.5,373.8125" style="stroke:#A80036;stroke-width:1.5;"/><text fill="#000000" font-family="sans-serif" font-size="11" lengthAdjust="spacingAndGlyphs" textLength="16" x="101.5" y="408.0229">&gt;0</text><text fill="#000000" font-family="sans-serif" font-size="11" lengthAdjust="spacingAndGlyphs" textLength="46" x="74.5" y="389.6206">diff-files</text><polygon fill="#FEFECE" filter="url(#f1h0kfibih4att)" points="97.5,476.1836,109.5,488.1836,97.5,500.1836,85.5,488.1836,97.5,476.1836" style="stroke:#A80036;stroke-width:1.5;"/><ellipse cx="97.5" cy="531.1836" fill="#FFFFFF" filter="url(#f1h0kfibih4att)" rx="11" ry="11" style="stroke:#000000;stroke-width:1.0;"/><ellipse cx="97.5" cy="531.1836" fill="#000000" rx="6" ry="6" style="stroke:#7F7F7F;stroke-width:1.0;"/><line style="stroke:#A80036;stroke-width:1.5;" x1="97.5" x2="97.5" y1="30" y2="50"/><polygon fill="#A80036" points="93.5,40,97.5,50,101.5,40,97.5,44" style="stroke:#A80036;stroke-width:1.0;"/><line style="stroke:#A80036;stroke-width:1.5;" x1="97.5" x2="97.5" y1="83.9688" y2="103.9688"/><polygon fill="#A80036" points="93.5,93.9688,97.5,103.9688,101.5,93.9688,97.5,97.9688" style="stroke:#A80036;stroke-width:1.0;"/><line style="stroke:#A80036;stroke-width:1.5;" x1="97.5" x2="97.5" y1="137.9375" y2="157.9375"/><polygon fill="#A80036" points="93.5,147.9375,97.5,157.9375,101.5,147.9375,97.5,151.9375" style="stroke:#A80036;stroke-width:1.0;"/><line style="stroke:#A80036;stroke-width:1.5;" x1="97.5" x2="97.5" y1="191.9063" y2="211.9063"/><polygon fill="#A80036" points="93.5,201.9063,97.5,211.9063,101.5,201.9063,97.5,205.9063" style="stroke:#A80036;stroke-width:1.0;"/><line style="stroke:#A80036;stroke-width:1.5;" x1="97.5" x2="97.5" y1="245.875" y2="265.875"/><polygon fill="#A80036" points="93.5,255.875,97.5,265.875,101.5,255.875,97.5,259.875" style="stroke:#A80036;stroke-width:1.0;"/><line style="stroke:#A80036;stroke-width:1.5;" x1="97.5" x2="97.5" y1="299.8438" y2="319.8438"/><polygon fill="#A80036" points="93.5,309.8438,97.5,319.8438,101.5,309.8438,97.5,313.8438" style="stroke:#A80036;stroke-width:1.0;"/><line style="stroke:#A80036;stroke-width:1.5;" x1="97.5" x2="97.5" y1="397.8125" y2="422.2148"/><polygon fill="#A80036" points="93.5,412.2148,97.5,422.2148,101.5,412.2148,97.5,416.2148" style="stroke:#A80036;stroke-width:1.0;"/><line style="stroke:#A80036;stroke-width:1.5;" x1="132.5" x2="151.5" y1="385.8125" y2="385.8125"/><polygon fill="#A80036" points="147.5,429.1992,151.5,439.1992,155.5,429.1992,151.5,433.1992" style="stroke:#A80036;stroke-width:1.5;"/><line style="stroke:#A80036;stroke-width:1.5;" x1="151.5" x2="151.5" y1="385.8125" y2="488.1836"/><line style="stroke:#A80036;stroke-width:1.5;" x1="151.5" x2="109.5" y1="488.1836" y2="488.1836"/><polygon fill="#A80036" points="119.5,484.1836,109.5,488.1836,119.5,492.1836,115.5,488.1836" style="stroke:#A80036;stroke-width:1.0;"/><line style="stroke:#A80036;stroke-width:1.5;" x1="97.5" x2="97.5" y1="456.1836" y2="476.1836"/><polygon fill="#A80036" points="93.5,466.1836,97.5,476.1836,101.5,466.1836,97.5,470.1836" style="stroke:#A80036;stroke-width:1.0;"/><line style="stroke:#A80036;stroke-width:1.5;" x1="97.5" x2="97.5" y1="353.8125" y2="373.8125"/><polygon fill="#A80036" points="93.5,363.8125,97.5,373.8125,101.5,363.8125,97.5,367.8125" style="stroke:#A80036;stroke-width:1.0;"/><line style="stroke:#A80036;stroke-width:1.5;" x1="97.5" x2="97.5" y1="500.1836" y2="520.1836"/><polygon fill="#A80036" points="93.5,510.1836,97.5,520.1836,101.5,510.1836,97.5,514.1836" style="stroke:#A80036;stroke-width:1.0;"/><!--MD5=[37380a5af9015dd83b1441930d7dccd3]
@startuml
skinparam dpi 96

start
:checkout-head;
:prepare-gihub;
:install-requirement-tools;
:create-plantuml-image;
:delete-plantuml-image;
:check-diff;
if (diff-files) then (>0)
  :push-to-git;
endif
stop

@enduml

PlantUML version 1.2020.26(Mon Dec 21 17:45:07 UTC 2020)
(GPL source distribution)
Java Runtime: OpenJDK Runtime Environment
JVM: OpenJDK 64-Bit Server VM
Default Encoding: UTF-8
Language: en
Country: null
--></g></svg>